<svg width="512" height="512" viewBox="0 0 512 512" fill="none" xmlns="http://www.w3.org/2000/svg">
  <rect width="512" height="512" rx="128" fill="#2563eb"/>
  <path d="M256 96C185.308 96 128 153.308 128 224C128 294.692 185.308 352 256 352C326.692 352 384 294.692 384 224C384 153.308 326.692 96 256 96ZM256 320C202.981 320 160 277.019 160 224C160 170.981 202.981 128 256 128C309.019 128 352 170.981 352 224C352 277.019 309.019 320 256 320Z" fill="white"/>
  <path d="M256 160C220.654 160 192 188.654 192 224C192 259.346 220.654 288 256 288C291.346 288 320 259.346 320 224C320 188.654 291.346 160 256 160ZM256 256C238.327 256 224 241.673 224 224C224 206.327 238.327 192 256 192C273.673 192 288 206.327 288 224C288 241.673 273.673 256 256 256Z" fill="white"/>
  <circle cx="256" cy="224" r="16" fill="#60a5fa"/>
  <path d="M256 352V400M256 400L216 380M256 400L296 380" stroke="white" stroke-width="8" stroke-linecap="round"/>
</svg>
